<?xml version="1.0" encoding="iso-8859-1"?>
<!-- Generator: Adobe Illustrator 19.0.0, SVG Export Plug-In . SVG Version: 6.00 Build 0)  -->
<svg version="1.1" id="Layer_1" xmlns="http://www.w3.org/2000/svg" xmlns:xlink="http://www.w3.org/1999/xlink" x="0px" y="0px"
	 viewBox="0 0 512.001 512.001" style="enable-background:new 0 0 512.001 512.001;" xml:space="preserve">
<g>
	<g>
		<circle cx="381.92" cy="102.82" r="10"/>
	</g>
</g>
<g>
	<g>
		<circle cx="82.03" cy="403.63" r="10"/>
	</g>
</g>
<g>
	<g>
		<path d="M449.697,27.796C431.161,9.515,406.612-0.375,380.551,0.011c-25.064,0.349-48.728,10.35-66.632,28.16
			c-17.904,17.812-28.026,41.423-28.502,66.484c-0.529,27.881,11.007,54.62,31.651,73.357c7.764,7.048,12.217,17.153,12.217,27.726
			v12.765c0,8.291,3.885,15.688,9.925,20.48v29.091c0,13.561,11.032,24.594,24.594,24.594h36.239
			c13.562,0,24.595-11.033,24.595-24.594v-29.092c6.039-4.793,9.924-12.189,9.924-20.48v-12.765
			c0-10.543,4.507-20.697,12.365-27.859c20.033-18.258,31.522-44.265,31.522-71.352C478.449,70.489,468.238,46.08,449.697,27.796z
			 M404.638,258.073L404.638,258.073c0,2.533-2.062,4.594-4.595,4.594h-36.239c-2.533,0-4.594-2.061-4.594-4.594v-23.43h45.428
			V258.073z M433.455,153.096c-12.006,10.942-18.893,26.484-18.893,42.641v12.765c0,3.387-2.755,6.142-6.142,6.142h-16.496v-72.298
			c0-5.522-4.478-10-10-10c-5.522,0-10,4.478-10,10v72.298h-16.497c-3.387,0-6.142-2.755-6.142-6.142v-12.765
			c0-16.201-6.844-31.704-18.775-42.534c-16.369-14.858-25.517-36.06-25.097-58.169c0.774-40.8,34.606-74.457,75.417-75.025
			c0.368-0.005,0.732-0.008,1.101-0.008c20.247,0,39.29,7.801,53.724,22.035c14.699,14.496,22.795,33.848,22.795,54.49
			C458.45,118,449.34,138.619,433.455,153.096z"/>
	</g>
</g>
<g>
	<g>
		<path d="M507.451,333.902c-8.696-19.692-31.789-28.641-51.486-19.946c-0.05,0.022-0.1,0.045-0.148,0.067l-65.013,29.981
			c-5.016,2.313-7.206,8.254-4.894,13.269c2.312,5.015,8.254,7.207,13.269,4.894l64.931-29.943
			c9.591-4.19,20.815,0.175,25.046,9.758c4.241,9.605-0.123,20.872-9.729,25.112l-133.042,58.742
			c-21.07,9.304-44.981,8.762-65.606-1.487l-48.7-24.195c-25.965-12.897-56.064-13.582-82.584-1.87l-0.913,0.402l-36.356-82.343
			l50.485-22.29c24.062-10.625,50.911-11.48,75.597-2.415l97.934,35.964c8.909,3.272,13.658,13.24,10.586,22.221
			c-3.131,9.149-13.134,14.073-22.293,10.975l-75.732-25.615c-5.233-1.771-10.907,1.037-12.677,6.269
			c-1.77,5.232,1.037,10.907,6.269,12.677l75.732,25.615c3.972,1.344,8.015,1.981,11.997,1.981c15.64,0,30.297-9.846,35.628-25.429
			c6.563-19.183-3.583-40.477-22.615-47.467l-97.934-35.964c-29.579-10.863-61.744-9.835-90.569,2.892l-50.8,22.429
			c-6.644-10.145-19.87-14.315-31.324-9.259L7.68,317.552c-3.614,1.595-5.95,5.169-5.961,9.119L1.224,501.973
			c-0.01,3.479,1.788,6.712,4.748,8.538c1.605,0.99,3.426,1.49,5.252,1.49c1.542,0,3.088-0.356,4.509-1.074l126.825-64.068
			c11.438-5.207,17.161-17.975,13.864-29.772l1.149-0.507c21.067-9.304,44.98-8.761,65.607,1.486l48.7,24.194
			c25.961,12.9,56.063,13.581,82.583,1.872l133.042-58.741C507.199,376.694,516.146,353.598,507.451,333.902z M134.214,428.682
			c-0.158,0.07-0.315,0.145-0.47,0.223L21.27,485.723l0.122-43.505l29.235-14.356c4.958-2.435,7.003-8.427,4.569-13.384
			c-2.435-4.958-8.428-7.004-13.384-4.569l-20.358,9.997l0.243-86.681l58.887-26.001c2.657-1.169,5.766,0.034,6.937,2.687
			l46.796,105.987c0.003,0.005,0.005,0.011,0.008,0.016l2.576,5.834C138.072,424.4,136.867,427.511,134.214,428.682z"/>
	</g>
</g>
<g>
</g>
<g>
</g>
<g>
</g>
<g>
</g>
<g>
</g>
<g>
</g>
<g>
</g>
<g>
</g>
<g>
</g>
<g>
</g>
<g>
</g>
<g>
</g>
<g>
</g>
<g>
</g>
<g>
</g>
</svg>
